# xmcd CD database file
#
# Track frame offsets:
#	180
#	18063
#	40747
#	55860
#	71781
#	90348
#	103574
#	123463
#	139229
#	156648
#	170141
#
# Disc length: 2498 seconds
#
# Revision: 2
# Processed by: cddbd v1.4b41PL1 Copyright (c) Steve Scherf et al.
# Submitted via: Feurio! 1.52 - http://www.feurio.com
#
DISCID=9409c00b
DTITLE=Tim Allen - Two Faces
DYEAR=1900
DGENRE=
TTITLE0=Get a little closer
TTITLE1=I miss You
TTITLE2=Do it!
TTITLE3=Whatever it takes
TTITLE4=Scoreboard
TTITLE5=Life's a loop
TTITLE6=This song is for You
TTITLE7=Father and Son
TTITLE8=Soldier 4723104
TTITLE9=Robot Dance
TTITLE10=One night in Paris
EXTD=
EXTT0=
EXTT1=
EXTT2=
EXTT3=
EXTT4=
EXTT5=
EXTT6=
EXTT7=
EXTT8=
EXTT9=
EXTT10=
PLAYORDER=
